<svg width="30" height="30" viewBox="0 0 30 30" fill="none" xmlns="http://www.w3.org/2000/svg">
<path d="M21.8848 9.59813C21.2596 8.91557 20.2877 7.9943 19.8742 10.0745C19.7335 10.7818 19.405 11.327 19.1235 11.766C18.82 10.2301 17.907 8.64042 17.0467 7.56856C16.7248 7.16754 15.5826 5.57338 15.3631 2.90643C15.3304 2.5084 14.8576 2.32149 14.5619 2.58997C11.7358 5.15543 10.1846 8.68383 10.127 12.6561C10.127 12.6561 8.95018 11.6641 8.31086 9.81879C8.13871 9.32186 7.4725 9.22706 7.18346 9.66645C7.12797 9.75083 7.07652 9.83532 7.03012 9.91735C4.84967 13.7728 3.80078 18.4548 4.77045 22.8106C6.39174 30.1054 17.1164 32.1448 22.7941 27.5599C28.349 23.0742 26.5833 14.7252 21.8848 9.59813Z" fill="#ED694A"/>
<path d="M6.27953 23.2686C5.32111 18.8662 6.33561 14.1386 8.46484 10.2228C8.411 10.0929 8.3592 9.95856 8.3108 9.81887C8.13865 9.32194 7.47244 9.22713 7.1834 9.66653C7.12791 9.7509 7.07653 9.83539 7.03012 9.91743C4.84967 13.7729 3.80078 18.4548 4.77045 22.8107C5.50996 26.138 8.14363 28.3712 11.3283 29.3819C8.84389 28.1785 6.89834 26.1154 6.27953 23.2686Z" fill="#D8553A"/>
<path d="M11.6435 12.5829C11.7612 8.97776 13.0652 5.74514 15.399 3.26182C15.3829 3.12506 15.371 3.00278 15.3633 2.90997C15.3299 2.50854 14.8744 2.30721 14.5799 2.57334C11.8504 5.0412 10.1867 8.53391 10.127 12.6559L10.6378 13.0526C10.8894 13.248 11.2303 13.2395 11.4706 13.0605C11.614 12.939 11.6346 12.7556 11.6435 12.5829Z" fill="#D8553A"/>
<path d="M20.1705 14.9307C19.7088 14.4266 18.9909 13.7461 18.6855 15.2826C18.5816 15.805 18.3389 16.2077 18.1311 16.532C17.9069 15.3976 17.2325 14.2233 16.5971 13.4317C16.3594 13.1355 15.5157 11.958 15.3536 9.98807C15.3294 9.69404 14.9802 9.55606 14.7618 9.75434C12.6744 11.6492 11.5286 14.2554 11.4861 17.1894C11.4861 17.1894 10.6169 16.4567 10.1447 15.0937C10.0176 14.7267 9.52545 14.6566 9.31199 14.9812C9.27103 15.0435 9.23301 15.1059 9.19873 15.1665C7.58816 18.0142 6.81344 21.4724 7.52963 24.6898C8.72717 30.0778 16.6486 31.5842 20.8422 28.1977C24.9452 24.8845 23.641 18.7178 20.1705 14.9307Z" fill="#F4A32C"/>
<path d="M9.02312 25.1125C8.38902 21.9674 9.0458 18.5927 10.4383 15.7825C10.3322 15.5747 10.2316 15.345 10.1445 15.0938C10.0174 14.7268 9.52527 14.6567 9.31181 14.9812C9.27085 15.0435 9.23283 15.106 9.19855 15.1666C7.58804 18.0143 6.81337 21.4725 7.52945 24.6898C8.08644 27.1958 10.098 28.8615 12.5123 29.5863C10.797 28.7261 9.4464 27.2148 9.02312 25.1125Z" fill="#C8842C"/>
<path d="M18.6055 19.799C18.293 19.4577 17.8069 18.997 17.6002 20.0372C17.5299 20.3908 17.3655 20.6634 17.2248 20.8829C17.073 20.1149 16.6166 19.3201 16.1864 18.7842C16.0255 18.5837 15.4544 17.7866 15.3446 16.4531C15.3282 16.2541 15.0919 16.1606 14.944 16.2949C13.5309 17.5776 12.7553 19.3419 12.7266 21.3279C12.7266 21.3279 12.1381 20.8319 11.8185 19.9093C11.7325 19.6609 11.3993 19.6135 11.2549 19.8331C11.2271 19.8753 11.2014 19.9176 11.1782 19.9586C10.088 21.8863 9.56348 24.2273 10.0483 26.4053C10.8589 30.0527 16.2213 31.0724 19.0601 28.7799C20.0322 27.9948 20.635 26.8886 20.7572 25.665C20.9417 23.8117 20.2284 21.57 18.6055 19.799Z" fill="#F4D44E"/>
<path d="M17.1532 24.3167C16.9791 24.1265 16.7083 23.8699 16.5931 24.4493C16.554 24.6464 16.4624 24.7982 16.384 24.9205C16.2994 24.4927 16.0451 24.0498 15.8055 23.7513C15.7158 23.6395 15.3976 23.1955 15.3364 22.4526C15.3273 22.3416 15.1956 22.2897 15.1133 22.3644C14.3261 23.079 13.8939 24.0619 13.8779 25.1684C13.8779 25.1684 13.55 24.8921 13.372 24.3781C13.324 24.2396 13.1384 24.2132 13.058 24.3356C13.0425 24.3591 13.0282 24.3827 13.0153 24.4055C12.4079 25.4796 12.1157 26.7837 12.3858 27.9972C13.001 30.7646 18.0428 30.6807 18.3521 27.5847C18.4547 26.5522 18.0574 25.3033 17.1532 24.3167Z" fill="#EAE9E8"/>
<path d="M13.5564 28.5465C13.2862 27.4611 13.5784 26.2944 14.1858 25.3337C14.1987 25.3133 14.2131 25.2923 14.2285 25.2712C14.309 25.1617 14.4946 25.1853 14.5425 25.3091C14.7205 25.769 15.0484 26.0162 15.0484 26.0162C15.0616 25.2029 15.3562 24.4646 15.8973 23.8725C15.7763 23.7049 15.4061 23.3008 15.3363 22.4528C15.3272 22.3419 15.1955 22.2899 15.1131 22.3646C14.3259 23.0793 13.8937 24.0622 13.8777 25.1687C13.8777 25.1687 13.5499 24.8923 13.3718 24.3784C13.3239 24.2399 13.1383 24.2135 13.0578 24.3359C13.0424 24.3594 13.0281 24.383 13.0152 24.4058C12.4078 25.4798 12.1156 26.784 12.3857 27.9975C12.6357 29.1222 13.6626 29.7981 14.7979 29.9612C14.1855 29.6605 13.7148 29.1842 13.5564 28.5465Z" fill="#F7E7A1"/>
<path d="M10.8162 3.98701C12.0833 2.95641 12.0805 1.02826 10.8162 0C9.54914 1.03055 9.55189 2.95875 10.8162 3.98701Z" fill="#D8553A"/>
<path d="M26.0034 12.2587C27.2705 11.2281 27.2677 9.29999 26.0034 8.27173C25.4243 8.7427 24.7391 11.2305 26.0034 12.2587Z" fill="#D8553A"/>
<path d="M3.56162 13.0434C4.47481 12.3006 4.47282 10.9111 3.56162 10.1699C3.14426 10.5094 2.65043 12.3023 3.56162 13.0434Z" fill="#D8553A"/>
<path d="M19.3774 6.86056C20.2906 6.11776 20.2886 4.72821 19.3774 3.98706C18.4642 4.72979 18.4662 6.11946 19.3774 6.86056Z" fill="#D8553A"/>
<path d="M12.6512 16.7184C12.8609 14.2427 13.8063 12.0414 15.3938 10.3632C15.3777 10.2416 15.3642 10.1167 15.3536 9.98831C15.3294 9.69429 14.9803 9.5563 14.7618 9.75458C13.1077 11.2561 12.0461 13.2047 11.6551 15.4087L11.6545 15.4085C11.6255 15.572 11.5895 15.8101 11.5668 15.9972C11.5668 15.9974 11.5669 15.9975 11.567 15.9977C11.5195 16.3881 11.4919 16.7856 11.4861 17.1896C11.5303 17.1983 12.5303 17.7123 12.6512 16.7184Z" fill="#C8842C"/>
<path d="M11.5096 26.9224C11.0786 24.8878 11.4456 22.718 12.2983 20.8381C12.1331 20.6064 11.9523 20.2953 11.8186 19.909C11.7324 19.6606 11.3994 19.6132 11.2549 19.8329C11.2271 19.875 11.2014 19.9173 11.1782 19.9583C10.088 21.8861 9.56349 24.227 10.0483 26.405C10.428 28.1131 11.8059 29.2449 13.4554 29.7301C12.4953 29.0928 11.769 28.1493 11.5096 26.9224Z" fill="#E8C842"/>
<path d="M14.2822 20.4388C14.425 19.4178 14.8426 18.2929 15.5 17.3524C15.4284 17.0869 15.3721 16.7868 15.3446 16.4531C15.3282 16.2541 15.0918 16.1606 14.944 16.2949C14.0636 17.0942 13.4316 18.0808 13.0726 19.1911L13.0717 19.1908C13.0152 19.3653 12.9353 19.6542 12.8869 19.8824C12.8873 19.8822 12.8878 19.8822 12.8882 19.8821C12.789 20.3475 12.7339 20.8306 12.7267 21.3279C13.5172 21.4265 14.1712 21.2308 14.2822 20.4388Z" fill="#E8C842"/>
</svg>
